[img]http://i.imgur.com/C9e4c.jpg[/img]


[code]

Texas.Chainsaw.2013.CAM.XViD-26k

 
http://www.imdb.com/title/tt1572315/


Plot:

A young woman travels to Texas to collect an inheritance; little does she know that an encounter with 
a chainsaw-wielding killer is part of the reward.



Sources - VIDEO: HP ..... thanks .... :P
          AUDIO: HP ..... thanks .... :P

 
          

Format                                   : AVI
Format/Info                              : Audio Video Interleave
File size                                : 1.49 GiB
Duration                                 : 1h 26mn
Overall bit rate                         : 2 472 Kbps
Writing library                          : VirtualDub build 32839/release

Video
ID                                       : 0
Format                                   : MPEG-4 Visual
Format profile                           : Advanced Simple@L5
Format settings, BVOP                    : 2
Format settings, QPel                    : Yes
Format settings, GMC                     : No warppoints
Format settings, Matrix                  : Default (H.263)
Muxing mode                              : Packed bitstream
Codec ID                                 : XVID
Codec ID/Hint                            : XviD
Duration                                 : 1h 26mn
Bit rate                                 : 2 332 Kbps
Width                                    : 720 pixels
Height                                   : 320 pixels
Display aspect ratio                     : 2.25:1
Frame rate                               : 29.970 fps
Color space                              : YUV
Chroma subsampling                       : 4:2:0
Bit depth                                : 8 bits
Scan type                                : Progressive
Compression mode                         : Lossy
Bits/(Pixel*Frame)                       : 0.338
Stream size                              : 1.40 GiB (94%)
Writing library                          : XviD 64

Audio
ID                                       : 1
Format                                   : MPEG Audio
Format version                           : Version 1
Format profile                           : Layer 3
Mode                                     : Joint stereo
Mode extension                           : MS Stereo
Codec ID                                 : 55
Codec ID/Hint                            : MP3
Duration                                 : 1h 26mn
Bit rate mode                            : Constant
Bit rate                                 : 128 Kbps
Channel(s)                               : 2 channels
Sampling rate                            : 44.1 KHz
Compression mode                         : Lossy
Stream size                              : 78.9 MiB (5%)
Alignment                                : Split accross interleaves
Interleave, duration                     : 33 ms (1.00 video frame)
Writing library                          : LAME3.99r
Encoding settings                        : -m j -V 4 -q 2 -lowpass 17 -b 128

Notes -
Source was nice but small res so upsclaed it to where it still looked decent
then ran sum filters and here is the outcome.. enjoy til better source comes along
and not talkin MATiNE source as it is actually worse than this one imho.. but to 
each his own.. enjoy.. :)

[/code]

Screens:

[img]http://i.imgur.com/0Dajq.png[/img]
[img]http://i.imgur.com/gFor4.png[/img]
[img]http://i.imgur.com/dUsNj.png[/img]
[img]http://i.imgur.com/dLQKA.png[/img]
[img]http://i.imgur.com/AxGIZ.jpg[/img]
[img]http://imageshack.us/a/img197/9346/94990689.png[/img]
[img]http://imageshack.us/a/img255/1569/23562085.png[/img]
[img]http://imageshack.us/a/img255/8314/44444269.png[/img]
[img]http://imageshack.us/a/img405/5961/43542091.png[/img]
[img]http://imageshack.us/a/img811/7785/54595417.png[/img]


Greetz:
XtremeEncode|CM8|RX|VISION|HDSCENE|xTriLL|ADTRG|CRYS|REMIXHD|HS|Tommiecook
BIDA|RX|REFILL|INSPiRAL|AXED|HOPE|Anonymous|GooN|NOIR|Blackjesus|Gabroo Punjab Deh
|UNiQUE|RESiSTANCE|TRiNiTY|LEGION

To all the people who have helped me, you know who you are

Anything to offer email us @: 26k@hushmail.me 